<svg width="599" height="599" viewBox="0 0 599 599" fill="none" xmlns="http://www.w3.org/2000/svg">
<g clip-path="url(#clip0_1_3)">
<rect width="599" height="599" rx="150" fill="#005B5B"/>
<g clip-path="url(#clip1_1_3)">
<path fill-rule="evenodd" clip-rule="evenodd" d="M465.656 158.906H133.344V329.902L170.912 292.334L176.527 286.719H184.468H264.48H272.387L273.162 285.943L362.632 196.475H389.743L465.656 272.387V158.906ZM299.517 313.815L338.619 352.918L352.177 366.474L325.063 393.588L311.506 380.03L256.538 325.062H192.41L134.119 383.353L133.344 384.127V414.531C133.344 428.649 144.789 440.094 158.906 440.094H440.094C454.212 440.094 465.656 428.649 465.656 414.531V326.613L376.188 237.144L300.275 313.057L299.517 313.815ZM95.0001 371.349V414.531C95.0001 449.825 123.612 478.438 158.906 478.438H440.094C475.388 478.438 504 449.825 504 414.531V339.394L518.333 325.062L504.775 311.506L504 310.731V158.906V120.562H465.656H133.344H95.0001V158.906V368.245L93.4492 369.797L95.0001 371.349Z" fill="black"/>
</g>
</g>
<defs>
<clipPath id="clip0_1_3">
<rect width="599" height="599" fill="white"/>
</clipPath>
<clipPath id="clip1_1_3">
<rect width="409" height="409" fill="white" transform="translate(95 95)"/>
</clipPath>
</defs>
</svg>
